<svg width="128" height="129" viewBox="0 0 128 129" fill="none" xmlns="http://www.w3.org/2000/svg">
<path d="M119.414 33.0392C113.691 22.9875 105.928 15.0296 96.1232 9.16364C86.3169 3.29737 75.6114 0.36499 63.999 0.36499C52.388 0.36499 41.679 3.29827 31.8747 9.16364C22.069 15.0293 14.3064 22.9875 8.58336 33.0392C2.86122 43.0906 0 54.0667 0 65.9674C0 80.2628 4.06869 93.1176 12.2081 104.535C20.3467 115.953 30.8605 123.855 43.7486 128.239C45.2489 128.525 46.3594 128.324 47.0815 127.642C47.8039 126.959 48.1646 126.104 48.1646 125.08C48.1646 124.909 48.1503 123.373 48.1226 120.468C48.094 117.563 48.0806 115.029 48.0806 112.866L46.1639 113.206C44.9418 113.436 43.4001 113.533 41.5389 113.505C39.6785 113.479 37.7472 113.279 35.7476 112.907C33.7471 112.539 31.8864 111.685 30.1641 110.347C28.4426 109.008 27.2205 107.257 26.4981 105.094L25.6649 103.128C25.1094 101.82 24.235 100.366 23.0403 98.7723C21.8457 97.1773 20.6377 96.0961 19.4156 95.5267L18.8321 95.0986C18.4434 94.814 18.0826 94.4708 17.749 94.0726C17.4157 93.6744 17.1661 93.2759 16.9995 92.8768C16.8325 92.4773 16.9709 92.1497 17.416 91.8927C17.8611 91.6357 18.6655 91.5109 19.8327 91.5109L21.4987 91.7661C22.6098 91.9944 23.9843 92.6763 25.6237 93.8159C27.2623 94.9546 28.6093 96.435 29.665 98.2565C30.9433 100.592 32.4836 102.372 34.2899 103.596C36.0949 104.821 37.9147 105.432 39.7477 105.432C41.5806 105.432 43.1637 105.29 44.4976 105.006C45.83 104.721 47.0801 104.293 48.2472 103.724C48.7472 99.9072 50.1085 96.9748 52.3299 94.925C49.1637 94.5839 46.3171 94.0702 43.7886 93.3872C41.2616 92.7032 38.6502 91.5932 35.9562 90.0542C33.2608 88.5172 31.0248 86.6087 29.2476 84.3318C27.4701 82.0538 26.0113 79.063 24.8733 75.3623C23.7347 71.6601 23.1653 67.3895 23.1653 62.5491C23.1653 55.6572 25.3601 49.7925 29.749 44.9515C27.6931 39.7701 27.8872 33.9616 30.3319 27.5266C31.943 27.0135 34.3323 27.3985 37.4985 28.6794C40.6653 29.9608 42.9839 31.0585 44.4567 31.9687C45.9295 32.8785 47.1095 33.6495 47.9986 34.2748C53.1662 32.7947 58.4989 32.0545 63.9984 32.0545C69.4978 32.0545 74.8318 32.7947 79.9997 34.2748L83.1662 32.2257C85.3316 30.8584 87.8887 29.6054 90.8313 28.4663C93.7757 27.3279 96.0272 27.0143 97.5835 27.5275C100.082 33.9628 100.305 39.771 98.2486 44.9524C102.637 49.7934 104.833 55.6596 104.833 62.55C104.833 67.3903 104.261 71.6745 103.125 75.4051C101.986 79.1363 100.515 82.1241 98.7101 84.3746C96.9031 86.6248 94.6528 88.5184 91.9588 90.0551C89.2643 91.5929 86.652 92.7029 84.125 93.3869C81.5968 94.0708 78.7502 94.5848 75.5839 94.9265C78.4717 97.4882 79.9159 101.532 79.9159 107.055V125.078C79.9159 126.102 80.2632 126.957 80.9585 127.64C81.6528 128.321 82.7494 128.522 84.2496 128.236C97.1395 123.852 107.653 115.951 115.792 104.533C123.929 93.1152 127.999 80.2604 127.999 65.965C127.996 54.0658 125.134 43.0906 119.414 33.0392Z" fill="black"/>
</svg>
