<svg width="128" height="128" viewBox="0 0 128 128" fill="none" xmlns="http://www.w3.org/2000/svg">
<path d="M61.7194 0C60.7792 0 60.0672 0.00693333 59.808 0.0357333C59.5328 0.064 58.6565 0.147733 57.8687 0.210667C39.6883 1.8496 22.6594 11.6576 11.8737 26.7323C5.86778 35.1147 2.02668 44.6219 0.576005 54.6933C0.0629339 58.208 0 59.2464 0 64.0128C0 68.7792 0.0640005 69.8176 0.576005 73.3333C4.05337 97.3653 21.158 117.557 44.3561 125.037C48.5103 126.377 52.8895 127.29 57.8693 127.84C59.8085 128.053 68.1915 128.053 70.1307 127.84C78.7265 126.889 86.0093 124.763 93.1906 121.097C94.292 120.534 94.5048 120.384 94.3549 120.258C94.2547 120.184 89.5618 113.891 83.9319 106.285L73.6971 92.4608L60.872 73.4832C53.8154 63.0491 48.0095 54.5179 47.9593 54.5179C47.9092 54.504 47.8596 62.9376 47.834 73.2325C47.7983 91.2603 47.7844 91.9856 47.5588 92.4112C47.2335 93.0245 46.9828 93.2741 46.458 93.5493C46.058 93.7488 45.707 93.7867 43.818 93.7867H41.6526L41.0777 93.424C40.7211 93.2006 40.4315 92.8852 40.2393 92.5109L39.9763 91.9477L40.0046 66.8651L40.0403 41.7696L40.4275 41.2816C40.6281 41.0187 41.0537 40.6816 41.3534 40.5189C41.8665 40.2683 42.067 40.2432 44.2313 40.2432C46.7844 40.2432 47.2095 40.3429 47.8724 41.0683C48.0607 41.2693 55.0047 51.728 63.3125 64.3259C71.7242 77.077 80.141 89.8247 88.5629 102.569L98.6974 117.919L99.2094 117.582C103.752 114.629 108.556 110.426 112.36 106.047C120.455 96.752 125.674 85.4181 127.425 73.3328C127.938 69.8176 128 68.7781 128 64.0128C128 59.2464 127.936 58.208 127.425 54.6923C123.947 30.6603 106.842 10.4688 83.645 2.98827C79.5532 1.66187 75.199 0.748267 70.3195 0.197867C69.4182 0.104 64.5397 0.00213333 61.7194 0ZM83.4183 38.4907C85.2706 38.4907 85.5954 38.5189 86.0087 38.7413C86.6098 39.0411 87.0967 39.6171 87.2727 40.2171C87.3719 40.5424 87.3975 47.4987 87.3719 63.1739L87.3362 85.6672L83.3703 79.5872L79.3911 73.5072V57.1552C79.3911 46.5845 79.4407 40.6416 79.5159 40.3541C79.7159 39.6539 80.1537 39.1029 80.7548 38.7781C81.2673 38.5147 81.4535 38.4907 83.4183 38.4907Z" fill="black"/>
</svg>
